<svg xmlns="http://www.w3.org/2000/svg" xmlns:xlink="http://www.w3.org/1999/xlink" version="1.1" viewBox="181.93 222.56 1128.83 1116.56">
<g id="surface1">
<path style=" stroke:none;fill-rule:nonzero;fill:rgb(0%,0%,0%);fill-opacity:1;" d="M 886.71875 223.59375 C 815.3125 228.4375 745.78125 233.75 680.46875 239.0625 C 573.59375 247.8125 520 251.875 383.59375 261.71875 C 255.3125 270.9375 239.53125 272.34375 227.5 275.78125 C 205.625 282.34375 190.625 299.0625 184.375 324.21875 C 182.03125 333.4375 181.09375 657.34375 182.8125 890.625 C 183.75 1027.34375 183.75 1030.625 187.03125 1040.15625 C 190.9375 1051.875 201.40625 1071.5625 208.28125 1080.3125 C 210.9375 1083.90625 236.5625 1115.9375 264.84375 1151.5625 C 293.28125 1187.1875 325.625 1228.28125 336.71875 1242.96875 C 365 1280.3125 388.28125 1308.4375 398.125 1317.1875 C 408.4375 1326.40625 421.09375 1333.28125 433.75 1336.5625 C 445.15625 1339.53125 482.96875 1340 514.84375 1337.5 C 526.09375 1336.71875 623.125 1330.3125 730.46875 1323.4375 C 1069.375 1301.875 1049.84375 1303.125 1164.0625 1295.3125 C 1249.0625 1289.53125 1253.75 1288.75 1272.5 1279.375 C 1283.59375 1273.75 1296.09375 1261.5625 1301.875 1250.78125 C 1311.5625 1232.65625 1310.9375 1255.78125 1310.625 833.59375 L 1310.15625 449.21875 L 1306.875 442.1875 C 1305.15625 438.28125 1301.5625 432.65625 1299.0625 429.6875 C 1293.28125 422.8125 1023.75 243.75 1007.03125 235.625 C 983.59375 224.53125 976.71875 223.125 939.84375 222.65625 C 921.875 222.34375 897.96875 222.8125 886.71875 223.59375 Z M 974.6875 290 C 981.25 292.1875 991.71875 296.71875 997.65625 300.3125 C 1013.90625 309.6875 1140.9375 394.375 1139.53125 394.84375 C 1137.1875 395.625 731.40625 425.3125 533.59375 439.21875 C 507.03125 441.09375 471.875 442.65625 455.46875 442.8125 C 426.71875 442.96875 425.3125 442.8125 413.28125 438.59375 C 395.15625 432.1875 384.0625 425 337.65625 390.15625 C 296.25 359.0625 281.25 346.40625 281.25 342.65625 C 281.25 337.8125 296.09375 334.0625 323.4375 332.1875 C 330.78125 331.5625 395.15625 326.5625 466.40625 321.09375 C 537.8125 315.46875 618.59375 309.21875 646.09375 307.03125 C 673.59375 305 726.71875 300.78125 764.0625 297.65625 C 876.40625 288.59375 908.90625 286.40625 936.40625 286.09375 C 960.78125 285.9375 963.59375 286.25 974.6875 290 Z M 1226.5625 470.9375 C 1234.0625 474.84375 1240.3125 480.9375 1244.21875 488.28125 L 1247.65625 494.53125 L 1247.65625 1185.15625 L 1243.125 1194.21875 C 1235.3125 1210.3125 1218.28125 1220.46875 1193.90625 1223.4375 C 1187.34375 1224.375 1160.9375 1226.40625 1135.15625 1228.125 C 1109.375 1230 1059.0625 1233.4375 1023.4375 1235.9375 C 924.53125 1242.96875 811.40625 1250.78125 698.4375 1258.59375 C 463.4375 1274.6875 448.90625 1275.3125 435.9375 1271.875 C 420.15625 1267.65625 407.1875 1257.65625 400.3125 1244.6875 L 396.09375 1236.71875 L 396.09375 546.09375 L 400.9375 537.5 C 406.71875 527.34375 417.96875 519.53125 429.375 518.125 C 433.4375 517.5 462.8125 515.3125 494.53125 513.28125 C 584.53125 507.1875 781.25 494.21875 838.28125 490.625 C 866.71875 488.90625 915.9375 485.625 947.65625 483.59375 C 979.53125 481.5625 1044.21875 477.34375 1091.40625 474.375 C 1138.75 471.25 1180.46875 468.59375 1184.375 468.125 C 1200.625 466.71875 1221.09375 468.125 1226.5625 470.9375 Z M 1226.5625 470.9375 "/>
<path style=" stroke:none;fill-rule:nonzero;fill:rgb(0%,0%,0%);fill-opacity:1;" d="M 835.15625 526.09375 C 764.375 532.1875 697.96875 557.1875 646.875 596.71875 C 630.625 609.21875 601.5625 637.1875 587.96875 653.4375 C 547.8125 701.5625 519.6875 763.75 507.8125 831.40625 C 502.96875 858.28125 501.875 905.9375 505.3125 932.34375 C 513.59375 995.625 538.4375 1055 576.09375 1101.5625 C 589.6875 1118.28125 617.03125 1144.375 634.84375 1157.65625 C 697.8125 1204.375 762.96875 1224.375 842.1875 1221.40625 C 915.46875 1218.75 985.15625 1192.5 1044.53125 1145.46875 C 1060.625 1132.8125 1089.21875 1104.375 1102.34375 1088.28125 C 1138.59375 1043.75 1166.25 985.46875 1177.1875 931.09375 C 1183.125 901.40625 1184.6875 886.09375 1184.6875 855.46875 C 1184.6875 802.65625 1175.15625 758.125 1153.125 709.0625 C 1139.53125 678.59375 1104.375 630.78125 1081.09375 610.9375 C 1051.5625 585.78125 1033.59375 573.75 1003.90625 559.21875 C 950.78125 533.125 890.15625 521.25 835.15625 526.09375 Z M 901.25 550.78125 C 964.6875 559.84375 1017.1875 584.21875 1066.71875 627.65625 C 1107.65625 663.75 1145.625 732.65625 1157.65625 792.96875 C 1181.5625 912.96875 1135.625 1041.09375 1039.84375 1121.40625 C 941.09375 1204.375 807.96875 1223.4375 699.21875 1170.46875 C 610.46875 1127.1875 547.8125 1044.21875 529.53125 946.09375 C 525.46875 923.90625 523.90625 880.46875 526.40625 856.09375 C 534.6875 775.625 570.15625 699.84375 624.84375 645.3125 C 674.6875 595.78125 742.03125 562.03125 813.90625 550.78125 C 832.34375 547.96875 881.09375 547.96875 901.25 550.78125 Z M 901.25 550.78125 "/>
<path style=" stroke:none;fill-rule:nonzero;fill:rgb(0%,0%,0%);fill-opacity:1;" d="M 822.65625 586.09375 C 755 595.3125 694.6875 625.46875 646.09375 674.0625 C 631.25 688.90625 610.9375 713.28125 610.9375 716.25 C 610.9375 717.8125 664.0625 717.1875 682.5 715.46875 C 700 713.75 700.3125 713.75 704.0625 717.34375 C 708.75 721.875 708.90625 728.28125 704.21875 733.59375 C 701.09375 737.34375 699.0625 737.96875 683.90625 739.53125 C 674.6875 740.46875 667.1875 741.875 667.1875 742.65625 C 667.1875 743.4375 684.53125 796.5625 705.625 860.625 C 726.71875 924.84375 749.84375 994.84375 756.875 1016.40625 L 769.84375 1055.46875 L 774.53125 1040.625 C 777.34375 1032.5 791.5625 988.75 806.25 943.59375 L 832.96875 861.40625 L 810.625 799.0625 L 788.125 736.71875 L 769.0625 735.9375 C 752.5 735.3125 749.6875 734.6875 746.875 731.875 C 742.34375 727.5 742.34375 719.53125 746.5625 715.15625 C 749.84375 711.875 751.09375 711.875 780 712.1875 C 812.1875 712.65625 852.03125 710.78125 893.4375 706.875 C 916.71875 704.6875 919.375 704.6875 922.8125 707.03125 C 930.3125 711.875 928.90625 723.4375 920.3125 727.65625 C 918.125 728.59375 908.90625 730.3125 899.53125 731.40625 C 888.90625 732.65625 882.96875 734.0625 883.4375 735 C 885 738.90625 894.21875 767.03125 932.1875 883.59375 C 954.21875 951.40625 975.15625 1015.78125 978.59375 1026.5625 L 985 1046.09375 L 1003.4375 989.84375 C 1035.625 891.875 1040.625 872.34375 1040.625 842.1875 C 1040.625 815.3125 1032.5 791.09375 1013.125 759.84375 C 996.25 732.65625 990 712.03125 993.59375 694.84375 C 997.65625 675.3125 1008.75 660.3125 1025.46875 651.875 L 1034.53125 647.1875 L 1027.8125 641.71875 C 998.59375 617.96875 953.28125 597.65625 910 588.90625 C 890.625 585 842.03125 583.4375 822.65625 586.09375 Z M 822.65625 586.09375 "/>
<path style=" stroke:none;fill-rule:nonzero;fill:rgb(0%,0%,0%);fill-opacity:1;" d="M 1098.59375 744.375 C 1098.28125 781.875 1092.34375 809.375 1070 875 C 1061.40625 900.3125 1039.375 965.3125 1021.09375 1019.53125 C 1002.65625 1073.59375 987.96875 1118.125 988.28125 1118.59375 C 989.84375 1120 1025.9375 1090.9375 1040 1077.03125 C 1130.625 987.34375 1157.03125 846.875 1103.90625 736.71875 L 1098.75 725.78125 Z M 1098.59375 744.375 "/>
<path style=" stroke:none;fill-rule:nonzero;fill:rgb(0%,0%,0%);fill-opacity:1;" d="M 579.375 777.8125 C 572.03125 797.65625 566.25 817.65625 563.125 835.15625 C 559.6875 853.90625 558.4375 901.25 560.9375 922.03125 C 566.25 968.75 586.09375 1017.96875 615.3125 1057.34375 C 628.4375 1075 658.125 1104.53125 674.21875 1115.78125 C 686.09375 1124.21875 713.59375 1140.625 715.78125 1140.625 C 716.25 1140.625 714.6875 1134.84375 712.1875 1127.65625 C 704.21875 1105.46875 674.84375 1020.9375 629.53125 889.84375 C 605.46875 820.3125 585.625 763.125 585.3125 762.96875 C 585.15625 762.8125 582.5 769.375 579.375 777.8125 Z M 579.375 777.8125 "/>
<path style=" stroke:none;fill-rule:nonzero;fill:rgb(0%,0%,0%);fill-opacity:1;" d="M 814.375 997.03125 C 760.15625 1160.625 761.09375 1157.65625 763.90625 1158.4375 C 781.40625 1163.59375 809.375 1167.1875 830.46875 1167.1875 C 847.65625 1167.1875 865.78125 1165.3125 885.15625 1161.5625 C 901.09375 1158.4375 935.9375 1147.03125 935.9375 1144.84375 C 935.9375 1143.28125 920.9375 1101.09375 888.28125 1010.15625 C 880.78125 989.53125 869.0625 956.875 862.1875 937.5 C 855.3125 918.125 849.0625 901.40625 848.4375 900.15625 C 847.65625 898.75 834.6875 935.78125 814.375 997.03125 Z M 814.375 997.03125 "/>
</g>
</svg>